The Crazies 2010 BDRip XviD-SAiNTS 
http://thepiratebay.org/torrent/5634735/The_Crazies_2010_BDRip_XviD-SAiNTS

The Crazies (2010) R5 XviD-MAX

Format                           : AVI
Format/Info                      : Audio Video Interleave 
Format profile                   : OpenDML  
File size                        : 1.18 GiB
Duration                         : 1h 36mn
Overall bit rate                 : 1 740 Kbps
Writing application              : VirtualDubMod 1.5.10.2 (build 2542/release)
Writing library                  : VirtualDubMod build 2542/release
Original source form             : MAX TORRENTZ
Copyright                        : SIGISMUNT

Video
ID                               : 0
Format                           : MPEG-4 Visual
Format profile                   : AdvancedSimple@L5
Format settings, BVOP            : Yes
Format settings, QPel            : No
Format settings, GMC             : No warppoints
Format settings, Matrix          : Custom
Codec ID                         : XVID
Codec ID/Hint                    : XviD
Duration                         : 1h 36mn
Bit rate                         : 1 629 Kbps
Width                            : 720 pixels
Height                           : 304 pixels
Display aspect ratio             : 2.35:1
Frame rate                       : 25.000 fps
Resolution                       : 24 bits
Colorimetry                      : 4:2:0
Scan type                        : Progressive 
Bits/(Pixel*Frame)               : 0.298
Stream size                      : 1.10 GiB (94%)
Writing library                  : XviD 1.2.1 (UTC 2008-12-04)

Audio
ID                               : 1
Format                           : MPEG Audio
Format version                   : Version 1
Format profile                   : Layer 3
Codec ID                         : 55
Codec ID/Hint                    : MP3
Duration                         : 1h 29mn
Bit rate mode                    : Variable
Bit rate                         : 112 Kbps
Minimum bit rate                 : 112 Kbps
Channel(s)                       : 2 channels
Sampling rate                    : 44.1 KHz
Resolution                       : 16 bits
Stream size                      : 71.4 MiB (6%)
Alignment                        : Aligned on interleaves
Interleave, duration             : 28 ms (0.70 video frame)
Interleave, preload duration     : 74 ms
Writing library                  : LAME3.98 
Encoding settings                : -m j -V 6 -q 5 -lowpass 15.5 --vbr-new -b 112

Sources: Original DVD Copy + R5 Noir Audio source adjusted (-50ms) 
http://www.imdb.com/title/tt0455407/

Screens: 
http://www.postimg.com/image/14000/13402.jpg 
http://www.postimg.com/image/14000/13403.jpg 
http://www.postimg.com/image/14000/13404.jpg 
http://www.postimg.com/image/14000/13405.jpg 
http://www.postimg.com/image/14000/13406.jpg

ScreenCaps: 
http://www.postimg.com/image/14000/13407.jpg

The Crazies (2010) R5 DVDRip XviD-MAX Torrent Free Download 
http://thepiratebay.org/user/extremezone/0/7